<mxfile host="app.diagrams.net" modified="2024-06-30T14:33:08.923Z" agent="Mozilla/5.0 (Macintosh; Intel Mac OS X 10.15; rv:127.0) Gecko/20100101 Firefox/127.0" etag="2aVBm3ezeBTN8Xoaxz5f" version="24.6.4" type="device">
  <diagram name="Page-1" id="AB7ytnFWy7Tndk48ED1Q">
    <mxGraphModel dx="4390" dy="1602" grid="0" gridSize="10" guides="1" tooltips="1" connect="1" arrows="1" fold="1" page="0" pageScale="1" pageWidth="850" pageHeight="1100" math="0" shadow="0">
      <root>
        <mxCell id="0" />
        <mxCell id="1" parent="0" />
        <mxCell id="IUo9QBP_ywNBg7mqGYJT-39" value="" style="rounded=0;whiteSpace=wrap;html=1;" vertex="1" parent="1">
          <mxGeometry x="-1437" y="2068" width="509" height="756" as="geometry" />
        </mxCell>
        <mxCell id="gny5ICiVMJyNOd5RxvrQ-77" value="" style="rounded=0;whiteSpace=wrap;html=1;" parent="1" vertex="1">
          <mxGeometry x="-1472" y="-55.67" width="516" height="850" as="geometry" />
        </mxCell>
        <mxCell id="gny5ICiVMJyNOd5RxvrQ-55" value="&lt;div&gt;----------------&lt;/div&gt;&lt;div&gt;----------------&lt;/div&gt;&lt;div&gt;----------------&lt;/div&gt;&lt;div&gt;----------------&lt;/div&gt;&lt;div&gt;----------------&lt;/div&gt;" style="rounded=0;whiteSpace=wrap;html=1;" parent="1" vertex="1">
          <mxGeometry x="-837.5" y="284.33" width="435" height="187" as="geometry" />
        </mxCell>
        <mxCell id="gny5ICiVMJyNOd5RxvrQ-57" value="&lt;font style=&quot;font-size: 24px;&quot;&gt;../Media&lt;br&gt;&lt;/font&gt;" style="rounded=1;whiteSpace=wrap;html=1;" parent="1" vertex="1">
          <mxGeometry x="-853" y="-50.67" width="466" height="314" as="geometry" />
        </mxCell>
        <mxCell id="gny5ICiVMJyNOd5RxvrQ-65" value="&lt;font style=&quot;font-size: 32px;&quot;&gt;Welcome - static, particle fx anim bg&lt;br&gt;&lt;/font&gt;" style="text;html=1;align=center;verticalAlign=middle;whiteSpace=wrap;rounded=0;" parent="1" vertex="1">
          <mxGeometry x="-1560" y="-93.67" width="692" height="30" as="geometry" />
        </mxCell>
        <mxCell id="gny5ICiVMJyNOd5RxvrQ-66" value="" style="shape=flexArrow;endArrow=classic;startArrow=classic;html=1;rounded=0;" parent="1" edge="1">
          <mxGeometry width="100" height="100" relative="1" as="geometry">
            <mxPoint x="-344" y="727.33" as="sourcePoint" />
            <mxPoint x="-344" y="-46.67" as="targetPoint" />
          </mxGeometry>
        </mxCell>
        <mxCell id="gny5ICiVMJyNOd5RxvrQ-69" value="&lt;font style=&quot;font-size: 24px;&quot;&gt;sticky -only theright pane can scroll&lt;br&gt;&lt;/font&gt;" style="text;html=1;align=center;verticalAlign=middle;whiteSpace=wrap;rounded=0;rotation=90;" parent="1" vertex="1">
          <mxGeometry x="-543" y="294.3300000000001" width="471" height="30" as="geometry" />
        </mxCell>
        <mxCell id="gny5ICiVMJyNOd5RxvrQ-71" value="" style="endArrow=none;html=1;rounded=0;strokeWidth=6;" parent="1" edge="1">
          <mxGeometry width="50" height="50" relative="1" as="geometry">
            <mxPoint x="-1480" y="817.3300000000002" as="sourcePoint" />
            <mxPoint x="-288" y="817.3300000000002" as="targetPoint" />
          </mxGeometry>
        </mxCell>
        <mxCell id="gny5ICiVMJyNOd5RxvrQ-72" value="" style="endArrow=none;html=1;rounded=0;strokeWidth=6;" parent="1" edge="1">
          <mxGeometry width="50" height="50" relative="1" as="geometry">
            <mxPoint x="-1480" y="-127.67" as="sourcePoint" />
            <mxPoint x="-288" y="-127.67" as="targetPoint" />
          </mxGeometry>
        </mxCell>
        <mxCell id="gny5ICiVMJyNOd5RxvrQ-82" value="" style="group" parent="1" vertex="1" connectable="0">
          <mxGeometry x="-1417" y="131.33" width="342" height="342" as="geometry" />
        </mxCell>
        <mxCell id="gny5ICiVMJyNOd5RxvrQ-56" value="&lt;div&gt;----------------&lt;/div&gt;&lt;div&gt;----------------&lt;/div&gt;&lt;div&gt;----------------&lt;/div&gt;&lt;div&gt;----------------&lt;/div&gt;&lt;div&gt;----------------&lt;/div&gt;" style="rounded=0;whiteSpace=wrap;html=1;" parent="gny5ICiVMJyNOd5RxvrQ-82" vertex="1">
          <mxGeometry width="339.43499999999995" height="232.0054054054054" as="geometry" />
        </mxCell>
        <mxCell id="gny5ICiVMJyNOd5RxvrQ-79" value="" style="rounded=1;whiteSpace=wrap;html=1;" parent="gny5ICiVMJyNOd5RxvrQ-82" vertex="1">
          <mxGeometry y="261.58378378378376" width="256.49999999999994" height="31.427027027027027" as="geometry" />
        </mxCell>
        <mxCell id="gny5ICiVMJyNOd5RxvrQ-80" value="" style="rounded=1;whiteSpace=wrap;html=1;" parent="gny5ICiVMJyNOd5RxvrQ-82" vertex="1">
          <mxGeometry x="263.3399999999999" y="261.58378378378376" width="76.09499999999997" height="31.427027027027027" as="geometry" />
        </mxCell>
        <mxCell id="gny5ICiVMJyNOd5RxvrQ-81" value="&lt;div&gt;----------------&lt;/div&gt;&lt;div&gt;----------------&lt;/div&gt;" style="rounded=0;whiteSpace=wrap;html=1;" parent="gny5ICiVMJyNOd5RxvrQ-82" vertex="1">
          <mxGeometry x="2.564999999999999" y="309.64864864864865" width="339.43499999999995" height="32.35135135135135" as="geometry" />
        </mxCell>
        <mxCell id="gny5ICiVMJyNOd5RxvrQ-83" value="&lt;div&gt;----------------&lt;/div&gt;&lt;div&gt;----------------&lt;/div&gt;" style="rounded=0;whiteSpace=wrap;html=1;" parent="1" vertex="1">
          <mxGeometry x="-1349.0024999999998" y="745.1002702702702" width="211.4025" height="22.229729729729726" as="geometry" />
        </mxCell>
        <mxCell id="gny5ICiVMJyNOd5RxvrQ-85" value="" style="endArrow=classic;html=1;rounded=0;entryX=0.5;entryY=0;entryDx=0;entryDy=0;" parent="1" target="gny5ICiVMJyNOd5RxvrQ-83" edge="1">
          <mxGeometry width="50" height="50" relative="1" as="geometry">
            <mxPoint x="-1569" y="541.33" as="sourcePoint" />
            <mxPoint x="-1580" y="392.33" as="targetPoint" />
          </mxGeometry>
        </mxCell>
        <mxCell id="gny5ICiVMJyNOd5RxvrQ-86" value="&lt;font style=&quot;font-size: 24px;&quot;&gt;copyright&lt;/font&gt;" style="text;html=1;align=center;verticalAlign=middle;whiteSpace=wrap;rounded=0;rotation=0;" parent="1" vertex="1">
          <mxGeometry x="-1831" y="515.33" width="471" height="30" as="geometry" />
        </mxCell>
        <mxCell id="gny5ICiVMJyNOd5RxvrQ-87" value="&lt;font style=&quot;font-size: 24px;&quot;&gt;Search and footer links&lt;br&gt;&lt;/font&gt;" style="text;html=1;align=center;verticalAlign=middle;whiteSpace=wrap;rounded=0;rotation=0;" parent="1" vertex="1">
          <mxGeometry x="-1831" y="372.33" width="471" height="30" as="geometry" />
        </mxCell>
        <mxCell id="gny5ICiVMJyNOd5RxvrQ-88" value="&lt;font style=&quot;font-size: 32px;&quot;&gt;News - scroll&lt;/font&gt;" style="text;html=1;align=center;verticalAlign=middle;whiteSpace=wrap;rounded=0;" parent="1" vertex="1">
          <mxGeometry x="-948" y="-85.67" width="596" height="30" as="geometry" />
        </mxCell>
        <mxCell id="gny5ICiVMJyNOd5RxvrQ-90" value="&lt;font style=&quot;font-size: 32px;&quot;&gt;40%&lt;/font&gt;" style="text;html=1;align=center;verticalAlign=middle;whiteSpace=wrap;rounded=0;" parent="1" vertex="1">
          <mxGeometry x="-1545" y="-7.67" width="692" height="30" as="geometry" />
        </mxCell>
        <mxCell id="gny5ICiVMJyNOd5RxvrQ-91" value="&lt;font style=&quot;font-size: 32px;&quot;&gt;60%&lt;br&gt;&lt;/font&gt;" style="text;html=1;align=center;verticalAlign=middle;whiteSpace=wrap;rounded=0;" parent="1" vertex="1">
          <mxGeometry x="-966" y="-12.67" width="692" height="30" as="geometry" />
        </mxCell>
        <mxCell id="gny5ICiVMJyNOd5RxvrQ-95" value="&lt;font style=&quot;font-size: 32px;&quot;&gt;. . .&lt;br&gt;&lt;/font&gt;" style="rounded=0;whiteSpace=wrap;html=1;dashed=1;dashPattern=8 8;" parent="1" vertex="1">
          <mxGeometry x="-834" y="515.33" width="435" height="212" as="geometry" />
        </mxCell>
        <mxCell id="gny5ICiVMJyNOd5RxvrQ-96" value="" style="endArrow=classic;html=1;rounded=0;entryX=0;entryY=1;entryDx=0;entryDy=0;" parent="1" source="gny5ICiVMJyNOd5RxvrQ-87" target="gny5ICiVMJyNOd5RxvrQ-79" edge="1">
          <mxGeometry width="50" height="50" relative="1" as="geometry">
            <mxPoint x="-431" y="381.33" as="sourcePoint" />
            <mxPoint x="-381" y="331.33" as="targetPoint" />
          </mxGeometry>
        </mxCell>
        <mxCell id="gny5ICiVMJyNOd5RxvrQ-100" value="&lt;div align=&quot;left&quot;&gt;&lt;font style=&quot;font-size: 32px;&quot;&gt;Testimonial function&lt;/font&gt;&lt;br&gt;&lt;/div&gt;" style="text;html=1;align=left;verticalAlign=middle;whiteSpace=wrap;rounded=0;" parent="1" vertex="1">
          <mxGeometry x="-185" y="-98.76" width="781" height="30" as="geometry" />
        </mxCell>
        <mxCell id="gny5ICiVMJyNOd5RxvrQ-103" value="" style="endArrow=none;html=1;rounded=0;strokeWidth=6;" parent="1" edge="1">
          <mxGeometry width="50" height="50" relative="1" as="geometry">
            <mxPoint x="-167" y="813.83" as="sourcePoint" />
            <mxPoint x="1025" y="813.83" as="targetPoint" />
          </mxGeometry>
        </mxCell>
        <mxCell id="gny5ICiVMJyNOd5RxvrQ-104" value="" style="endArrow=none;html=1;rounded=0;strokeWidth=6;" parent="1" edge="1">
          <mxGeometry width="50" height="50" relative="1" as="geometry">
            <mxPoint x="-167" y="-131.17000000000002" as="sourcePoint" />
            <mxPoint x="1025" y="-131.17000000000002" as="targetPoint" />
          </mxGeometry>
        </mxCell>
        <mxCell id="gny5ICiVMJyNOd5RxvrQ-106" value="&lt;div&gt;----------------&lt;/div&gt;&lt;div&gt;----------------&lt;/div&gt;&lt;div&gt;----------------&lt;/div&gt;&lt;div&gt;----------------&lt;/div&gt;&lt;div&gt;----------------&lt;/div&gt;" style="rounded=0;whiteSpace=wrap;html=1;dashed=1;dashPattern=8 8;" parent="1" vertex="1">
          <mxGeometry x="-138" y="-19.759999999999998" width="268" height="228.85" as="geometry" />
        </mxCell>
        <mxCell id="gny5ICiVMJyNOd5RxvrQ-128" value="&lt;font style=&quot;font-size: 24px;&quot;&gt;Left to right auto-scroll. Stops on mouse over. Greyscale, color comes in when mouse on hover&lt;font style=&quot;font-size: 24px;&quot;&gt;&lt;br&gt;&lt;/font&gt;&lt;/font&gt;" style="text;html=1;align=center;verticalAlign=middle;whiteSpace=wrap;rounded=0;" parent="1" vertex="1">
          <mxGeometry x="-157" y="294.00000000000006" width="781" height="30" as="geometry" />
        </mxCell>
        <mxCell id="gny5ICiVMJyNOd5RxvrQ-133" value="" style="rounded=0;whiteSpace=wrap;html=1;" parent="1" vertex="1">
          <mxGeometry x="-1472" y="978" width="1105" height="850" as="geometry" />
        </mxCell>
        <mxCell id="gny5ICiVMJyNOd5RxvrQ-136" value="&lt;font style=&quot;font-size: 32px;&quot;&gt;Tools, which contains showcase/downloads .. and About which contains info, FAQ..&lt;br&gt;&lt;/font&gt;" style="text;html=1;align=center;verticalAlign=middle;whiteSpace=wrap;rounded=0;" parent="1" vertex="1">
          <mxGeometry x="-1560" y="940" width="1301" height="30" as="geometry" />
        </mxCell>
        <mxCell id="gny5ICiVMJyNOd5RxvrQ-137" value="" style="shape=flexArrow;endArrow=classic;startArrow=classic;html=1;rounded=0;" parent="1" edge="1">
          <mxGeometry width="100" height="100" relative="1" as="geometry">
            <mxPoint x="-344" y="1761" as="sourcePoint" />
            <mxPoint x="-344" y="987" as="targetPoint" />
          </mxGeometry>
        </mxCell>
        <mxCell id="gny5ICiVMJyNOd5RxvrQ-138" value="&lt;font style=&quot;font-size: 24px;&quot;&gt;sticky scroll again, only right&lt;br&gt;&lt;/font&gt;" style="text;html=1;align=center;verticalAlign=middle;whiteSpace=wrap;rounded=0;rotation=90;" parent="1" vertex="1">
          <mxGeometry x="-543" y="1328.0000000000002" width="471" height="30" as="geometry" />
        </mxCell>
        <mxCell id="gny5ICiVMJyNOd5RxvrQ-139" value="" style="endArrow=none;html=1;rounded=0;strokeWidth=6;" parent="1" edge="1">
          <mxGeometry width="50" height="50" relative="1" as="geometry">
            <mxPoint x="-1480" y="1851.0000000000002" as="sourcePoint" />
            <mxPoint x="-288" y="1851.0000000000002" as="targetPoint" />
          </mxGeometry>
        </mxCell>
        <mxCell id="gny5ICiVMJyNOd5RxvrQ-140" value="" style="endArrow=none;html=1;rounded=0;strokeWidth=6;" parent="1" edge="1">
          <mxGeometry width="50" height="50" relative="1" as="geometry">
            <mxPoint x="-1480" y="906.0000000000001" as="sourcePoint" />
            <mxPoint x="-288" y="906.0000000000001" as="targetPoint" />
          </mxGeometry>
        </mxCell>
        <mxCell id="gny5ICiVMJyNOd5RxvrQ-141" value="" style="group" parent="1" vertex="1" connectable="0">
          <mxGeometry x="-1437" y="738" width="1071" height="410" as="geometry" />
        </mxCell>
        <mxCell id="gny5ICiVMJyNOd5RxvrQ-158" value="" style="rounded=0;whiteSpace=wrap;html=1;" parent="gny5ICiVMJyNOd5RxvrQ-141" vertex="1">
          <mxGeometry x="-35" y="241" width="1106" height="67" as="geometry" />
        </mxCell>
        <mxCell id="gny5ICiVMJyNOd5RxvrQ-159" value="" style="group" parent="gny5ICiVMJyNOd5RxvrQ-141" vertex="1" connectable="0">
          <mxGeometry x="715" y="260" width="339.43" height="31.569999999999993" as="geometry" />
        </mxCell>
        <mxCell id="gny5ICiVMJyNOd5RxvrQ-143" value="" style="rounded=1;whiteSpace=wrap;html=1;" parent="gny5ICiVMJyNOd5RxvrQ-159" vertex="1">
          <mxGeometry y="0.0037837837837741972" width="256.49999999999994" height="31.427027027027027" as="geometry" />
        </mxCell>
        <mxCell id="gny5ICiVMJyNOd5RxvrQ-144" value="" style="rounded=1;whiteSpace=wrap;html=1;" parent="gny5ICiVMJyNOd5RxvrQ-159" vertex="1">
          <mxGeometry x="263" width="76.43" height="31.57" as="geometry" />
        </mxCell>
        <mxCell id="gny5ICiVMJyNOd5RxvrQ-149" value="&lt;font style=&quot;font-size: 24px;&quot;&gt;Nav with search&lt;br&gt;&lt;/font&gt;" style="text;html=1;align=center;verticalAlign=middle;whiteSpace=wrap;rounded=0;rotation=0;" parent="gny5ICiVMJyNOd5RxvrQ-141" vertex="1">
          <mxGeometry x="389" y="259.99999999999994" width="196" height="30" as="geometry" />
        </mxCell>
        <mxCell id="gny5ICiVMJyNOd5RxvrQ-156" value="" style="endArrow=classic;html=1;rounded=0;entryX=0;entryY=0.75;entryDx=0;entryDy=0;" parent="gny5ICiVMJyNOd5RxvrQ-141" source="gny5ICiVMJyNOd5RxvrQ-149" edge="1">
          <mxGeometry width="50" height="50" relative="1" as="geometry">
            <mxPoint x="1789" y="268.99999999999994" as="sourcePoint" />
            <mxPoint x="859.9999999999995" y="278.0040540540537" as="targetPoint" />
          </mxGeometry>
        </mxCell>
        <mxCell id="gny5ICiVMJyNOd5RxvrQ-155" value="&lt;font style=&quot;font-size: 24px;&quot;&gt;Text&lt;/font&gt;" style="rounded=0;whiteSpace=wrap;html=1;dashed=1;dashPattern=8 8;" parent="1" vertex="1">
          <mxGeometry x="-866" y="1140" width="435" height="119" as="geometry" />
        </mxCell>
        <mxCell id="gny5ICiVMJyNOd5RxvrQ-175" value="&lt;font style=&quot;font-size: 24px;&quot;&gt;Information&lt;/font&gt;" style="rounded=1;whiteSpace=wrap;html=1;dashed=1;dashPattern=8 8;" parent="1" vertex="1">
          <mxGeometry x="-847.5" y="2067" width="466" height="157" as="geometry" />
        </mxCell>
        <mxCell id="gny5ICiVMJyNOd5RxvrQ-176" value="&lt;font style=&quot;font-size: 32px;&quot;&gt;About&lt;/font&gt;" style="text;html=1;align=center;verticalAlign=middle;whiteSpace=wrap;rounded=0;" parent="1" vertex="1">
          <mxGeometry x="-1558" y="1944" width="692" height="30" as="geometry" />
        </mxCell>
        <mxCell id="gny5ICiVMJyNOd5RxvrQ-177" value="" style="shape=flexArrow;endArrow=classic;startArrow=classic;html=1;rounded=0;" parent="1" edge="1">
          <mxGeometry width="100" height="100" relative="1" as="geometry">
            <mxPoint x="-342" y="2765" as="sourcePoint" />
            <mxPoint x="-342" y="1991" as="targetPoint" />
          </mxGeometry>
        </mxCell>
        <mxCell id="gny5ICiVMJyNOd5RxvrQ-179" value="" style="endArrow=none;html=1;rounded=0;strokeWidth=6;" parent="1" edge="1">
          <mxGeometry width="50" height="50" relative="1" as="geometry">
            <mxPoint x="-1478" y="2855" as="sourcePoint" />
            <mxPoint x="-286" y="2855" as="targetPoint" />
          </mxGeometry>
        </mxCell>
        <mxCell id="gny5ICiVMJyNOd5RxvrQ-180" value="" style="endArrow=none;html=1;rounded=0;strokeWidth=6;" parent="1" edge="1">
          <mxGeometry width="50" height="50" relative="1" as="geometry">
            <mxPoint x="-1478" y="1910" as="sourcePoint" />
            <mxPoint x="-286" y="1910" as="targetPoint" />
          </mxGeometry>
        </mxCell>
        <mxCell id="gny5ICiVMJyNOd5RxvrQ-181" value="" style="rounded=0;whiteSpace=wrap;html=1;" parent="1" vertex="1">
          <mxGeometry x="-1470" y="1983" width="1106" height="67" as="geometry" />
        </mxCell>
        <mxCell id="gny5ICiVMJyNOd5RxvrQ-182" value="" style="group" parent="1" vertex="1" connectable="0">
          <mxGeometry x="-720" y="2002" width="339.43" height="31.569999999999993" as="geometry" />
        </mxCell>
        <mxCell id="gny5ICiVMJyNOd5RxvrQ-183" value="" style="rounded=1;whiteSpace=wrap;html=1;" parent="gny5ICiVMJyNOd5RxvrQ-182" vertex="1">
          <mxGeometry y="0.0037837837837741972" width="256.49999999999994" height="31.427027027027027" as="geometry" />
        </mxCell>
        <mxCell id="gny5ICiVMJyNOd5RxvrQ-184" value="" style="rounded=1;whiteSpace=wrap;html=1;" parent="gny5ICiVMJyNOd5RxvrQ-182" vertex="1">
          <mxGeometry x="263" width="76.43" height="31.57" as="geometry" />
        </mxCell>
        <mxCell id="gny5ICiVMJyNOd5RxvrQ-185" value="&lt;font style=&quot;font-size: 24px;&quot;&gt;Nav with search&lt;br&gt;&lt;/font&gt;" style="text;html=1;align=center;verticalAlign=middle;whiteSpace=wrap;rounded=0;rotation=0;" parent="1" vertex="1">
          <mxGeometry x="-1046" y="2002" width="196" height="30" as="geometry" />
        </mxCell>
        <mxCell id="gny5ICiVMJyNOd5RxvrQ-186" value="" style="endArrow=classic;html=1;rounded=0;entryX=0;entryY=0.75;entryDx=0;entryDy=0;" parent="1" source="gny5ICiVMJyNOd5RxvrQ-185" edge="1">
          <mxGeometry width="50" height="50" relative="1" as="geometry">
            <mxPoint x="354" y="2011" as="sourcePoint" />
            <mxPoint x="-575.0000000000005" y="2020.0040540540538" as="targetPoint" />
          </mxGeometry>
        </mxCell>
        <mxCell id="gny5ICiVMJyNOd5RxvrQ-192" value="" style="group" parent="1" vertex="1" connectable="0">
          <mxGeometry x="-1395" y="2342" width="361" height="309" as="geometry" />
        </mxCell>
        <mxCell id="gny5ICiVMJyNOd5RxvrQ-194" value="&lt;font style=&quot;font-size: 24px;&quot;&gt;About&lt;br&gt;&lt;/font&gt;" style="rounded=1;whiteSpace=wrap;html=1;" parent="gny5ICiVMJyNOd5RxvrQ-192" vertex="1">
          <mxGeometry width="361" height="202.02563906516806" as="geometry" />
        </mxCell>
        <mxCell id="-cYagt9_mP6-7J8K4UqU-2" value="&lt;div&gt;----------------&lt;/div&gt;&lt;div&gt;----------------&lt;/div&gt;&lt;div&gt;----------------&lt;/div&gt;&lt;div&gt;----------------&lt;/div&gt;&lt;div&gt;----------------&lt;/div&gt;" style="rounded=0;whiteSpace=wrap;html=1;dashed=1;dashPattern=8 8;" parent="1" vertex="1">
          <mxGeometry x="81" y="-19.76" width="267" height="228" as="geometry" />
        </mxCell>
        <mxCell id="-cYagt9_mP6-7J8K4UqU-4" value="&lt;div&gt;----------------&lt;/div&gt;&lt;div&gt;----------------&lt;/div&gt;&lt;div&gt;----------------&lt;/div&gt;&lt;div&gt;----------------&lt;/div&gt;&lt;div&gt;----------------&lt;/div&gt;" style="rounded=0;whiteSpace=wrap;html=1;dashed=1;dashPattern=8 8;" parent="1" vertex="1">
          <mxGeometry x="768" y="-19.76" width="267" height="228" as="geometry" />
        </mxCell>
        <mxCell id="-cYagt9_mP6-7J8K4UqU-3" value="&lt;div&gt;----------------&lt;/div&gt;&lt;div&gt;----------------&lt;/div&gt;&lt;div&gt;----------------&lt;/div&gt;&lt;div&gt;----------------&lt;/div&gt;&lt;div&gt;----------------&lt;/div&gt;" style="rounded=0;whiteSpace=wrap;html=1;dashed=1;dashPattern=8 8;" parent="1" vertex="1">
          <mxGeometry x="524" y="-19.76" width="267" height="228" as="geometry" />
        </mxCell>
        <mxCell id="gny5ICiVMJyNOd5RxvrQ-120" value="&lt;div&gt;----------------&lt;/div&gt;&lt;div&gt;----------------&lt;/div&gt;&lt;div&gt;----------------&lt;/div&gt;&lt;div&gt;----------------&lt;/div&gt;&lt;div&gt;----------------&lt;/div&gt;" style="rounded=0;whiteSpace=wrap;html=1;" parent="1" vertex="1">
          <mxGeometry x="294" y="-19.760000000000005" width="267" height="228" as="geometry" />
        </mxCell>
        <mxCell id="gny5ICiVMJyNOd5RxvrQ-127" value="" style="shape=image;html=1;verticalAlign=top;verticalLabelPosition=bottom;labelBackgroundColor=#ffffff;imageAspect=0;aspect=fixed;image=https://cdn2.iconfinder.com/data/icons/boxicons-solid-vol-2/24/bxs-pointer-128.png" parent="1" vertex="1">
          <mxGeometry x="526.25" y="165.67000000000004" width="71.5" height="71.5" as="geometry" />
        </mxCell>
        <mxCell id="-cYagt9_mP6-7J8K4UqU-5" value="" style="endArrow=classic;html=1;rounded=0;" parent="1" edge="1">
          <mxGeometry width="50" height="50" relative="1" as="geometry">
            <mxPoint x="272" y="266.67" as="sourcePoint" />
            <mxPoint x="331" y="194.67" as="targetPoint" />
          </mxGeometry>
        </mxCell>
        <mxCell id="-cYagt9_mP6-7J8K4UqU-6" value="&lt;font style=&quot;font-size: 42px;&quot;&gt;Showcase on timeline&lt;br&gt;&lt;/font&gt;" style="rounded=1;whiteSpace=wrap;html=1;" parent="1" vertex="1">
          <mxGeometry x="-90" y="366" width="1041" height="390" as="geometry" />
        </mxCell>
        <mxCell id="-cYagt9_mP6-7J8K4UqU-7" value="" style="shape=image;html=1;verticalAlign=top;verticalLabelPosition=bottom;labelBackgroundColor=#ffffff;imageAspect=0;aspect=fixed;image=https://cdn1.iconfinder.com/data/icons/ionicons-fill-vol-2/512/logo-javascript-128.png" parent="1" vertex="1">
          <mxGeometry x="-1548" y="-31.000000000000014" width="128" height="128" as="geometry" />
        </mxCell>
        <mxCell id="-cYagt9_mP6-7J8K4UqU-8" value="" style="shape=image;html=1;verticalAlign=top;verticalLabelPosition=bottom;labelBackgroundColor=#ffffff;imageAspect=0;aspect=fixed;image=https://cdn1.iconfinder.com/data/icons/ionicons-fill-vol-2/512/logo-javascript-128.png" parent="1" vertex="1">
          <mxGeometry x="-1400" y="377" width="59" height="59" as="geometry" />
        </mxCell>
        <mxCell id="-cYagt9_mP6-7J8K4UqU-12" value="" style="shape=image;html=1;verticalAlign=top;verticalLabelPosition=bottom;labelBackgroundColor=#ffffff;imageAspect=0;aspect=fixed;image=https://cdn1.iconfinder.com/data/icons/ionicons-fill-vol-2/512/logo-javascript-128.png" parent="1" vertex="1">
          <mxGeometry x="340" y="-81.33000000000001" width="128" height="128" as="geometry" />
        </mxCell>
        <mxCell id="-cYagt9_mP6-7J8K4UqU-20" value="" style="group" parent="1" vertex="1" connectable="0">
          <mxGeometry x="-1427" y="748" width="1122" height="1082" as="geometry" />
        </mxCell>
        <mxCell id="IUo9QBP_ywNBg7mqGYJT-38" value="" style="rounded=0;whiteSpace=wrap;html=1;" vertex="1" parent="-cYagt9_mP6-7J8K4UqU-20">
          <mxGeometry x="-11" y="342" width="495" height="724" as="geometry" />
        </mxCell>
        <mxCell id="-cYagt9_mP6-7J8K4UqU-21" value="" style="rounded=0;whiteSpace=wrap;html=1;" parent="-cYagt9_mP6-7J8K4UqU-20" vertex="1">
          <mxGeometry x="-35" y="241" width="1106" height="67" as="geometry" />
        </mxCell>
        <mxCell id="-cYagt9_mP6-7J8K4UqU-22" value="" style="group" parent="-cYagt9_mP6-7J8K4UqU-20" vertex="1" connectable="0">
          <mxGeometry x="715" y="260" width="339.43" height="43" as="geometry" />
        </mxCell>
        <mxCell id="-cYagt9_mP6-7J8K4UqU-23" value="" style="rounded=1;whiteSpace=wrap;html=1;" parent="-cYagt9_mP6-7J8K4UqU-22" vertex="1">
          <mxGeometry y="0.0037837837837741972" width="256.49999999999994" height="31.427027027027027" as="geometry" />
        </mxCell>
        <mxCell id="-cYagt9_mP6-7J8K4UqU-24" value="" style="rounded=1;whiteSpace=wrap;html=1;" parent="-cYagt9_mP6-7J8K4UqU-22" vertex="1">
          <mxGeometry x="263" width="76.43" height="31.57" as="geometry" />
        </mxCell>
        <mxCell id="IUo9QBP_ywNBg7mqGYJT-19" value="" style="shape=image;html=1;verticalAlign=top;verticalLabelPosition=bottom;labelBackgroundColor=#ffffff;imageAspect=0;aspect=fixed;image=https://cdn1.iconfinder.com/data/icons/ionicons-fill-vol-2/512/logo-javascript-128.png" vertex="1" parent="-cYagt9_mP6-7J8K4UqU-22">
          <mxGeometry x="194" y="-6" width="49" height="49" as="geometry" />
        </mxCell>
        <mxCell id="-cYagt9_mP6-7J8K4UqU-25" value="&lt;font style=&quot;font-size: 24px;&quot;&gt;Nav with search&lt;br&gt;&lt;/font&gt;" style="text;html=1;align=center;verticalAlign=middle;whiteSpace=wrap;rounded=0;rotation=0;" parent="-cYagt9_mP6-7J8K4UqU-20" vertex="1">
          <mxGeometry x="389" y="259.99999999999994" width="196" height="30" as="geometry" />
        </mxCell>
        <mxCell id="-cYagt9_mP6-7J8K4UqU-26" value="" style="endArrow=classic;html=1;rounded=0;entryX=0;entryY=0.75;entryDx=0;entryDy=0;" parent="-cYagt9_mP6-7J8K4UqU-20" source="-cYagt9_mP6-7J8K4UqU-25" edge="1">
          <mxGeometry width="50" height="50" relative="1" as="geometry">
            <mxPoint x="1789" y="268.99999999999994" as="sourcePoint" />
            <mxPoint x="859.9999999999995" y="278.0040540540537" as="targetPoint" />
          </mxGeometry>
        </mxCell>
        <mxCell id="gny5ICiVMJyNOd5RxvrQ-168" value="&lt;font style=&quot;font-size: 24px;&quot;&gt;Bg has particle anim from ../Main/Welcome/Home&lt;br&gt;&lt;/font&gt;" style="text;html=1;align=center;verticalAlign=middle;whiteSpace=wrap;rounded=0;rotation=0;" parent="-cYagt9_mP6-7J8K4UqU-20" vertex="1">
          <mxGeometry x="15" y="387" width="288" height="30" as="geometry" />
        </mxCell>
        <mxCell id="gny5ICiVMJyNOd5RxvrQ-162" value="" style="group" parent="-cYagt9_mP6-7J8K4UqU-20" vertex="1" connectable="0">
          <mxGeometry x="49" y="543" width="467" height="539" as="geometry" />
        </mxCell>
        <mxCell id="gny5ICiVMJyNOd5RxvrQ-160" value="&lt;div style=&quot;font-size: 18px;&quot;&gt;&lt;font style=&quot;font-size: 18px;&quot;&gt;----------------&lt;/font&gt;&lt;/div&gt;&lt;div style=&quot;font-size: 18px;&quot;&gt;&lt;font style=&quot;font-size: 18px;&quot;&gt;NO SEARCH&lt;br&gt;&lt;/font&gt;&lt;/div&gt;&lt;div style=&quot;font-size: 18px;&quot;&gt;&lt;font style=&quot;font-size: 18px;&quot;&gt;----------------&lt;/font&gt;&lt;/div&gt;&lt;div style=&quot;font-size: 18px;&quot;&gt;&lt;font style=&quot;font-size: 18px;&quot;&gt;Same as Welcome - footers&lt;br&gt;&lt;/font&gt;&lt;/div&gt;&lt;div style=&quot;font-size: 18px;&quot;&gt;&lt;font style=&quot;font-size: 18px;&quot;&gt;----------------&lt;/font&gt;&lt;/div&gt;" style="rounded=0;whiteSpace=wrap;html=1;" parent="gny5ICiVMJyNOd5RxvrQ-162" vertex="1">
          <mxGeometry x="12.007510729613735" y="223.8048780487805" width="336.98497854077254" height="72.19512195121952" as="geometry" />
        </mxCell>
        <mxCell id="gny5ICiVMJyNOd5RxvrQ-161" value="&lt;font style=&quot;font-size: 32px;&quot;&gt;Tools&lt;/font&gt;" style="rounded=1;whiteSpace=wrap;html=1;" parent="gny5ICiVMJyNOd5RxvrQ-162" vertex="1">
          <mxGeometry width="361" height="208.56368563685638" as="geometry" />
        </mxCell>
        <mxCell id="IUo9QBP_ywNBg7mqGYJT-40" value="&lt;font style=&quot;font-size: 22px;&quot;&gt;**All pages need custom .js to handle responsive scaling&lt;br&gt;&lt;/font&gt;" style="text;html=1;align=center;verticalAlign=middle;whiteSpace=wrap;rounded=0;" vertex="1" parent="-cYagt9_mP6-7J8K4UqU-20">
          <mxGeometry x="430" y="18" width="692" height="30" as="geometry" />
        </mxCell>
        <mxCell id="IUo9QBP_ywNBg7mqGYJT-42" value="&lt;font style=&quot;font-size: 22px;&quot;&gt;**All pages need custom .js to handle responsive scaling&lt;br&gt;&lt;/font&gt;" style="text;html=1;align=center;verticalAlign=middle;whiteSpace=wrap;rounded=0;" vertex="1" parent="-cYagt9_mP6-7J8K4UqU-20">
          <mxGeometry x="423" y="1024" width="692" height="30" as="geometry" />
        </mxCell>
        <mxCell id="-cYagt9_mP6-7J8K4UqU-28" value="" style="shape=image;html=1;verticalAlign=top;verticalLabelPosition=bottom;labelBackgroundColor=#ffffff;imageAspect=0;aspect=fixed;image=https://cdn1.iconfinder.com/data/icons/ionicons-fill-vol-2/512/logo-javascript-128.png" parent="1" vertex="1">
          <mxGeometry x="-1382" y="2106" width="88" height="88" as="geometry" />
        </mxCell>
        <mxCell id="IUo9QBP_ywNBg7mqGYJT-4" value="&lt;h1 style=&quot;margin-top: 0px; font-size: 20px;&quot;&gt;Javascript&lt;/h1&gt;&lt;p style=&quot;font-size: 20px;&quot;&gt;&lt;font style=&quot;font-size: 20px;&quot;&gt;Particle.js&lt;/font&gt;&lt;br&gt;&lt;/p&gt;" style="text;html=1;whiteSpace=wrap;overflow=hidden;rounded=0;" vertex="1" parent="1">
          <mxGeometry x="-1414" y="17.330000000000013" width="180" height="120" as="geometry" />
        </mxCell>
        <mxCell id="IUo9QBP_ywNBg7mqGYJT-5" value="&lt;h1 style=&quot;margin-top: 0px; font-size: 20px;&quot;&gt;Javascript&lt;/h1&gt;&lt;p style=&quot;font-size: 20px;&quot;&gt;Vanilla validation&lt;br&gt;&lt;/p&gt;" style="text;html=1;whiteSpace=wrap;overflow=hidden;rounded=0;" vertex="1" parent="1">
          <mxGeometry x="-1336" y="320" width="180" height="120" as="geometry" />
        </mxCell>
        <mxCell id="IUo9QBP_ywNBg7mqGYJT-6" value="&lt;h1 style=&quot;margin-top: 0px; font-size: 20px;&quot;&gt;Javascript&lt;/h1&gt;&lt;p style=&quot;font-size: 20px;&quot;&gt;&lt;font style=&quot;font-size: 20px;&quot;&gt;GSAP carousel?&lt;/font&gt;&lt;br&gt;&lt;/p&gt;" style="text;html=1;whiteSpace=wrap;overflow=hidden;rounded=0;" vertex="1" parent="1">
          <mxGeometry x="476" y="-111.99999999999997" width="180" height="120" as="geometry" />
        </mxCell>
        <mxCell id="IUo9QBP_ywNBg7mqGYJT-7" value="" style="shape=image;html=1;verticalAlign=top;verticalLabelPosition=bottom;labelBackgroundColor=#ffffff;imageAspect=0;aspect=fixed;image=https://cdn1.iconfinder.com/data/icons/ionicons-fill-vol-2/512/logo-javascript-128.png" vertex="1" parent="1">
          <mxGeometry x="643" y="222.99999999999997" width="128" height="128" as="geometry" />
        </mxCell>
        <mxCell id="IUo9QBP_ywNBg7mqGYJT-8" value="&lt;h1 style=&quot;margin-top: 0px; font-size: 20px;&quot;&gt;Javascript&lt;/h1&gt;&lt;p style=&quot;font-size: 20px;&quot;&gt;Vanilla + SCSS&lt;br&gt;&lt;/p&gt;" style="text;html=1;whiteSpace=wrap;overflow=hidden;rounded=0;" vertex="1" parent="1">
          <mxGeometry x="786" y="234.00000000000003" width="180" height="120" as="geometry" />
        </mxCell>
        <mxCell id="IUo9QBP_ywNBg7mqGYJT-18" value="" style="shape=image;html=1;verticalAlign=top;verticalLabelPosition=bottom;labelBackgroundColor=#ffffff;imageAspect=0;aspect=fixed;image=https://cdn1.iconfinder.com/data/icons/ionicons-fill-vol-2/512/logo-javascript-128.png" vertex="1" parent="1">
          <mxGeometry x="-607" y="1614" width="75" height="75" as="geometry" />
        </mxCell>
        <mxCell id="-cYagt9_mP6-7J8K4UqU-17" value="" style="shape=image;html=1;verticalAlign=top;verticalLabelPosition=bottom;labelBackgroundColor=#ffffff;imageAspect=0;aspect=fixed;image=https://cdn1.iconfinder.com/data/icons/ionicons-fill-vol-2/512/logo-javascript-128.png" parent="1" vertex="1">
          <mxGeometry x="-1359" y="1178" width="75" height="75" as="geometry" />
        </mxCell>
        <mxCell id="IUo9QBP_ywNBg7mqGYJT-21" value="&lt;font style=&quot;font-size: 24px;&quot;&gt;...&lt;br&gt;...&lt;br&gt;...&lt;br&gt;&lt;br&gt;Table&lt;/font&gt;" style="rounded=0;whiteSpace=wrap;html=1;dashed=1;dashPattern=8 8;" vertex="1" parent="1">
          <mxGeometry x="-868" y="1316" width="435" height="266" as="geometry" />
        </mxCell>
        <mxCell id="gny5ICiVMJyNOd5RxvrQ-170" value="&lt;b style=&quot;font-size: 18px;&quot;&gt;To GitHub&lt;br&gt;&lt;/b&gt;" style="rounded=1;whiteSpace=wrap;html=1;" parent="1" vertex="1">
          <mxGeometry x="-558.5" y="1552" width="120" height="60" as="geometry" />
        </mxCell>
        <mxCell id="IUo9QBP_ywNBg7mqGYJT-22" value="&lt;font style=&quot;font-size: 18px;&quot;&gt;&lt;b&gt;ID - entry&lt;br&gt;&lt;/b&gt;&lt;/font&gt;" style="rounded=1;whiteSpace=wrap;html=1;" vertex="1" parent="1">
          <mxGeometry x="-858.5" y="1552" width="120" height="60" as="geometry" />
        </mxCell>
        <mxCell id="IUo9QBP_ywNBg7mqGYJT-23" value="&lt;font size=&quot;1&quot;&gt;&lt;b style=&quot;font-size: 18px;&quot;&gt;descriptions&lt;/b&gt;&lt;/font&gt;" style="rounded=1;whiteSpace=wrap;html=1;" vertex="1" parent="1">
          <mxGeometry x="-708.5" y="1552" width="120" height="60" as="geometry" />
        </mxCell>
        <mxCell id="IUo9QBP_ywNBg7mqGYJT-27" value="&lt;font style=&quot;font-size: 23px;&quot;&gt;JQuery - db search? record search? &lt;font style=&quot;font-size: 23px;&quot;&gt;&lt;br&gt;&lt;/font&gt;&lt;/font&gt;" style="text;html=1;align=center;verticalAlign=middle;whiteSpace=wrap;rounded=0;rotation=0;" vertex="1" parent="1">
          <mxGeometry x="-675" y="1071" width="288" height="30" as="geometry" />
        </mxCell>
        <mxCell id="IUo9QBP_ywNBg7mqGYJT-28" value="&lt;font style=&quot;font-size: 18px;&quot;&gt;Vanilla js - table functionality for readability&lt;br&gt;&lt;/font&gt;" style="text;html=1;align=center;verticalAlign=middle;whiteSpace=wrap;rounded=0;rotation=0;" vertex="1" parent="1">
          <mxGeometry x="-889" y="1672" width="288" height="30" as="geometry" />
        </mxCell>
        <mxCell id="IUo9QBP_ywNBg7mqGYJT-29" value="&lt;font style=&quot;font-size: 24px;&quot;&gt;sticky scroll again, only right&lt;br&gt;&lt;/font&gt;" style="text;html=1;align=center;verticalAlign=middle;whiteSpace=wrap;rounded=0;rotation=90;" vertex="1" parent="1">
          <mxGeometry x="-543" y="2321" width="471" height="30" as="geometry" />
        </mxCell>
        <mxCell id="IUo9QBP_ywNBg7mqGYJT-30" value="&lt;font style=&quot;font-size: 24px;&quot;&gt;Bg has particle anim from ../Main/Welcome/Home&lt;br&gt;&lt;/font&gt;" style="text;html=1;align=center;verticalAlign=middle;whiteSpace=wrap;rounded=0;rotation=0;" vertex="1" parent="1">
          <mxGeometry x="-1373" y="2213" width="288" height="30" as="geometry" />
        </mxCell>
        <mxCell id="IUo9QBP_ywNBg7mqGYJT-31" value="&lt;div style=&quot;font-size: 18px;&quot;&gt;&lt;font style=&quot;font-size: 18px;&quot;&gt;----------------&lt;/font&gt;&lt;/div&gt;&lt;div style=&quot;font-size: 18px;&quot;&gt;&lt;font style=&quot;font-size: 18px;&quot;&gt;NO SEARCH&lt;br&gt;&lt;/font&gt;&lt;/div&gt;&lt;div style=&quot;font-size: 18px;&quot;&gt;&lt;font style=&quot;font-size: 18px;&quot;&gt;----------------&lt;/font&gt;&lt;/div&gt;&lt;div style=&quot;font-size: 18px;&quot;&gt;&lt;font style=&quot;font-size: 18px;&quot;&gt;Same as Welcome - footers&lt;br&gt;&lt;/font&gt;&lt;/div&gt;&lt;div style=&quot;font-size: 18px;&quot;&gt;&lt;font style=&quot;font-size: 18px;&quot;&gt;----------------&lt;/font&gt;&lt;/div&gt;" style="rounded=0;whiteSpace=wrap;html=1;" vertex="1" parent="1">
          <mxGeometry x="-1382.4924892703862" y="2562.0048780487805" width="336.98497854077254" height="72.19512195121952" as="geometry" />
        </mxCell>
        <mxCell id="IUo9QBP_ywNBg7mqGYJT-32" value="&lt;font style=&quot;font-size: 24px;&quot;&gt;FAQ&lt;/font&gt;" style="rounded=1;whiteSpace=wrap;html=1;dashed=1;dashPattern=8 8;" vertex="1" parent="1">
          <mxGeometry x="-843.5" y="2253" width="466" height="157" as="geometry" />
        </mxCell>
        <mxCell id="IUo9QBP_ywNBg7mqGYJT-33" value="&lt;font style=&quot;font-size: 24px;&quot;&gt;Compliance and privacy&lt;br&gt;&lt;/font&gt;" style="rounded=1;whiteSpace=wrap;html=1;dashed=1;dashPattern=8 8;" vertex="1" parent="1">
          <mxGeometry x="-853" y="2613" width="466" height="157" as="geometry" />
        </mxCell>
        <mxCell id="IUo9QBP_ywNBg7mqGYJT-34" value="&lt;font style=&quot;font-size: 24px;&quot;&gt;Changelog&lt;/font&gt;" style="rounded=1;whiteSpace=wrap;html=1;dashed=1;dashPattern=8 8;" vertex="1" parent="1">
          <mxGeometry x="-847.5" y="2427" width="466" height="157" as="geometry" />
        </mxCell>
        <mxCell id="-cYagt9_mP6-7J8K4UqU-19" value="" style="shape=image;html=1;verticalAlign=top;verticalLabelPosition=bottom;labelBackgroundColor=#ffffff;imageAspect=0;aspect=fixed;image=https://cdn1.iconfinder.com/data/icons/ionicons-fill-vol-2/512/logo-javascript-128.png" parent="1" vertex="1">
          <mxGeometry x="-889" y="2665" width="84" height="84" as="geometry" />
        </mxCell>
        <mxCell id="IUo9QBP_ywNBg7mqGYJT-37" style="edgeStyle=orthogonalEdgeStyle;rounded=0;orthogonalLoop=1;jettySize=auto;html=1;" edge="1" parent="1" source="IUo9QBP_ywNBg7mqGYJT-36" target="-cYagt9_mP6-7J8K4UqU-19">
          <mxGeometry relative="1" as="geometry" />
        </mxCell>
        <mxCell id="IUo9QBP_ywNBg7mqGYJT-36" value="&lt;div align=&quot;left&quot;&gt;&lt;font style=&quot;font-size: 24px;&quot;&gt;vanilla js to bring compliacne and privacy to front of screen for importance. blur bg, open and close functionality&lt;/font&gt;&lt;br&gt;&lt;/div&gt;" style="text;html=1;align=left;verticalAlign=middle;whiteSpace=wrap;rounded=0;rotation=0;" vertex="1" parent="1">
          <mxGeometry x="-1308" y="2740" width="339" height="30" as="geometry" />
        </mxCell>
        <mxCell id="IUo9QBP_ywNBg7mqGYJT-41" value="&lt;font style=&quot;font-size: 22px;&quot;&gt;**All pages need custom .js to handle responsive scaling&lt;br&gt;&lt;/font&gt;" style="text;html=1;align=center;verticalAlign=middle;whiteSpace=wrap;rounded=0;" vertex="1" parent="1">
          <mxGeometry x="136" y="767.33" width="692" height="30" as="geometry" />
        </mxCell>
        <mxCell id="IUo9QBP_ywNBg7mqGYJT-43" value="&lt;font style=&quot;font-size: 22px;&quot;&gt;**All pages need custom .js to handle responsive scaling&lt;br&gt;&lt;/font&gt;" style="text;html=1;align=center;verticalAlign=middle;whiteSpace=wrap;rounded=0;" vertex="1" parent="1">
          <mxGeometry x="-938" y="2800" width="692" height="30" as="geometry" />
        </mxCell>
      </root>
    </mxGraphModel>
  </diagram>
</mxfile>
